<svg xmlns="http://www.w3.org/2000/svg" width="700" height="420" viewBox="0 0 700 420">
  <defs>
    <marker id="arrow" viewBox="0 0 10 10" refX="8.5" refY="5" markerWidth="7" markerHeight="7" orient="auto-start-reverse">
      <path d="M 0 0 L 10 5 L 0 10 z" fill="#334155"/>
    </marker>
  </defs>
  <rect width="700" height="420" fill="#fffdf7"/>
  <g stroke="#e5e7eb" stroke-width="1">
    <line x1="110" y1="50" x2="110" y2="350"/>
    <line x1="220" y1="50" x2="220" y2="350"/>
    <line x1="330" y1="50" x2="330" y2="350"/>
    <line x1="440" y1="50" x2="440" y2="350"/>
    <line x1="550" y1="50" x2="550" y2="350"/>
    <line x1="110" y1="90" x2="590" y2="90"/>
    <line x1="110" y1="150" x2="590" y2="150"/>
    <line x1="110" y1="210" x2="590" y2="210"/>
    <line x1="110" y1="270" x2="590" y2="270"/>
    <line x1="110" y1="330" x2="590" y2="330"/>
  </g>
  <line x1="70" y1="210" x2="630" y2="210" stroke="#334155" stroke-width="2.4" marker-end="url(#arrow)"/>
  <line x1="440" y1="390" x2="440" y2="18" stroke="#334155" stroke-width="2.4" marker-end="url(#arrow)"/>
  <polyline fill="none" stroke="#dc2626" stroke-width="4" points="110,320 160,300 210,260 255,220 290,212 330,210 385,205 440,190 495,150 550,90 590,45"/>
  <line x1="275" y1="50" x2="275" y2="350" stroke="#94a3b8" stroke-width="2" stroke-dasharray="7 6"/>
  <circle cx="275" cy="210" r="6" fill="#2563eb"/>
  <g font-family="Arial, sans-serif" font-size="16" fill="#0f172a">
    <text x="638" y="216">x</text>
    <text x="448" y="18">y</text>
    <text x="447" y="232">0</text>
    <text x="210" y="232">-2</text>
    <text x="320" y="232">-1</text>
    <text x="548" y="232">1</text>
    <text x="248" y="196">(-3/2, 0)</text>
  </g>
  <g font-family="Arial, sans-serif" font-size="17" fill="#475569">
    <text x="84" y="34">qualitative graph of y = (2x + 3)^5</text>
    <text x="84" y="58">inner function 2x + 3 becomes zero at x = -3/2</text>
    <text x="84" y="82">chain rule: outer power derivative x inner derivative</text>
  </g>
</svg>
