<svg xmlns="http://www.w3.org/2000/svg" width="700" height="420" viewBox="0 0 700 420">
  <defs>
    <marker id="arrow" viewBox="0 0 10 10" refX="8.5" refY="5" markerWidth="7" markerHeight="7" orient="auto-start-reverse">
      <path d="M 0 0 L 10 5 L 0 10 z" fill="#334155"/>
    </marker>
  </defs>
  <rect width="700" height="420" fill="#fffdf7"/>
  <g stroke="#e5e7eb" stroke-width="1">
    <line x1="120" y1="70" x2="120" y2="350"/>
    <line x1="240" y1="70" x2="240" y2="350"/>
    <line x1="360" y1="70" x2="360" y2="350"/>
    <line x1="480" y1="70" x2="480" y2="350"/>
    <line x1="120" y1="350" x2="520" y2="350"/>
    <line x1="120" y1="294" x2="520" y2="294"/>
    <line x1="120" y1="238" x2="520" y2="238"/>
    <line x1="120" y1="182" x2="520" y2="182"/>
    <line x1="120" y1="126" x2="520" y2="126"/>
    <line x1="120" y1="70" x2="520" y2="70"/>
  </g>
  <line x1="80" y1="350" x2="560" y2="350" stroke="#334155" stroke-width="2.4" marker-end="url(#arrow)"/>
  <line x1="120" y1="390" x2="120" y2="30" stroke="#334155" stroke-width="2.4" marker-end="url(#arrow)"/>
  <polyline fill="none" stroke="#dc2626" stroke-width="4" points="120,350 180,343 240,322 300,287 360,238 420,175 480,98 504,63"/>
  <line x1="240" y1="322" x2="480" y2="98" stroke="#2563eb" stroke-width="3"/>
  <circle cx="240" cy="322" r="6" fill="#2563eb"/>
  <circle cx="480" cy="98" r="6" fill="#2563eb"/>
  <g font-family="Arial, sans-serif" font-size="16" fill="#0f172a">
    <text x="568" y="356">x</text>
    <text x="128" y="30">y</text>
    <text x="113" y="368">0</text>
    <text x="235" y="368">1</text>
    <text x="355" y="368">2</text>
    <text x="475" y="368">3</text>
    <text x="100" y="355">0</text>
    <text x="100" y="299">2</text>
    <text x="100" y="243">4</text>
    <text x="100" y="187">6</text>
    <text x="100" y="131">8</text>
    <text x="92" y="75">10</text>
    <text x="190" y="314">A(1, 1)</text>
    <text x="490" y="92">B(3, 9)</text>
  </g>
  <g font-family="Arial, sans-serif" font-size="17" fill="#475569">
    <text x="540" y="154">secant AB</text>
    <text x="540" y="178">slope =</text>
    <text x="540" y="202">(9 - 1) / (3 - 1)</text>
    <text x="540" y="226">= 4</text>
  </g>
</svg>
