<svg xmlns="http://www.w3.org/2000/svg" width="700" height="420" viewBox="0 0 700 420">
  <defs>
    <marker id="arrow" viewBox="0 0 10 10" refX="8.5" refY="5" markerWidth="7" markerHeight="7" orient="auto-start-reverse">
      <path d="M 0 0 L 10 5 L 0 10 z" fill="#334155"/>
    </marker>
  </defs>
  <rect width="700" height="420" fill="#fffdf7"/>
  <g stroke="#e5e7eb" stroke-width="1">
    <line x1="120" y1="80" x2="120" y2="330"/>
    <line x1="200" y1="80" x2="200" y2="330"/>
    <line x1="280" y1="80" x2="280" y2="330"/>
    <line x1="360" y1="80" x2="360" y2="330"/>
    <line x1="440" y1="80" x2="440" y2="330"/>
    <line x1="520" y1="80" x2="520" y2="330"/>
    <line x1="120" y1="80" x2="520" y2="80"/>
    <line x1="120" y1="130" x2="520" y2="130"/>
    <line x1="120" y1="180" x2="520" y2="180"/>
    <line x1="120" y1="230" x2="520" y2="230"/>
    <line x1="120" y1="280" x2="520" y2="280"/>
    <line x1="120" y1="330" x2="520" y2="330"/>
  </g>
  <line x1="80" y1="280" x2="570" y2="280" stroke="#334155" stroke-width="2.4" marker-end="url(#arrow)"/>
  <line x1="120" y1="370" x2="120" y2="40" stroke="#334155" stroke-width="2.4" marker-end="url(#arrow)"/>
  <line x1="280" y1="80" x2="280" y2="330" stroke="#94a3b8" stroke-width="2" stroke-dasharray="7 6"/>
  <polyline fill="none" stroke="#dc2626" stroke-width="4" points="120,130 160,217.5 200,280 240,317.5 280,330 320,317.5 360,280 400,217.5 440,130"/>
  <circle cx="280" cy="330" r="6" fill="#2563eb"/>
  <g font-family="Arial, sans-serif" font-size="16" fill="#0f172a">
    <text x="578" y="286">x</text>
    <text x="128" y="40">y</text>
    <text x="113" y="298">0</text>
    <text x="195" y="298">1</text>
    <text x="275" y="298">2</text>
    <text x="355" y="298">3</text>
    <text x="435" y="298">4</text>
    <text x="103" y="335">-1</text>
    <text x="108" y="285">0</text>
    <text x="108" y="235">1</text>
    <text x="108" y="185">2</text>
    <text x="108" y="135">3</text>
    <text x="294" y="324">(2, -1)</text>
  </g>
  <g font-family="Arial, sans-serif" font-size="17" fill="#475569">
    <text x="560" y="116">x &lt; 2</text>
    <text x="560" y="140">decreasing</text>
    <text x="560" y="206">x &gt; 2</text>
    <text x="560" y="230">increasing</text>
    <text x="560" y="296">minimum</text>
    <text x="560" y="320">at x = 2</text>
  </g>
</svg>
