<svg xmlns="http://www.w3.org/2000/svg" width="760" height="240" viewBox="0 0 760 240">
  <defs>
    <marker id="arrow" viewBox="0 0 10 10" refX="8.5" refY="5" markerWidth="7" markerHeight="7" orient="auto-start-reverse">
      <path d="M 0 0 L 10 5 L 0 10 z" fill="#334155"/>
    </marker>
  </defs>
  <rect width="760" height="240" fill="#fffdf7"/>
  <g font-family="Arial, sans-serif" font-size="18" fill="#0f172a">
    <text x="36" y="36">Single linked list insertion: insert X after B</text>
  </g>
  <g transform="translate(50,70)">
    <g>
      <rect x="0" y="0" width="90" height="44" fill="#dbeafe" stroke="#2563eb" stroke-width="2"/>
      <rect x="90" y="0" width="54" height="44" fill="#eff6ff" stroke="#2563eb" stroke-width="2"/>
      <text x="34" y="28" font-family="Arial, sans-serif" font-size="20" fill="#0f172a">A</text>
      <text x="104" y="28" font-family="Arial, sans-serif" font-size="18" fill="#475569">next</text>
    </g>
    <g transform="translate(170,0)">
      <rect x="0" y="0" width="90" height="44" fill="#dbeafe" stroke="#2563eb" stroke-width="2"/>
      <rect x="90" y="0" width="54" height="44" fill="#eff6ff" stroke="#2563eb" stroke-width="2"/>
      <text x="34" y="28" font-family="Arial, sans-serif" font-size="20" fill="#0f172a">B</text>
      <text x="104" y="28" font-family="Arial, sans-serif" font-size="18" fill="#475569">next</text>
    </g>
    <g transform="translate(340,0)">
      <rect x="0" y="0" width="90" height="44" fill="#dbeafe" stroke="#2563eb" stroke-width="2"/>
      <rect x="90" y="0" width="54" height="44" fill="#eff6ff" stroke="#2563eb" stroke-width="2"/>
      <text x="34" y="28" font-family="Arial, sans-serif" font-size="20" fill="#0f172a">C</text>
      <text x="104" y="28" font-family="Arial, sans-serif" font-size="18" fill="#475569">next</text>
    </g>
    <line x1="144" y1="22" x2="168" y2="22" stroke="#334155" stroke-width="2.5" marker-end="url(#arrow)"/>
    <line x1="314" y1="22" x2="338" y2="22" stroke="#334155" stroke-width="2.5" marker-end="url(#arrow)"/>
    <line x1="484" y1="22" x2="530" y2="22" stroke="#334155" stroke-width="2.5" marker-end="url(#arrow)"/>
    <text x="540" y="28" font-family="Arial, sans-serif" font-size="18" fill="#475569">NULL</text>
  </g>
  <g transform="translate(50,150)">
    <rect x="170" y="0" width="90" height="44" fill="#fee2e2" stroke="#dc2626" stroke-width="2"/>
    <rect x="260" y="0" width="54" height="44" fill="#fef2f2" stroke="#dc2626" stroke-width="2"/>
    <text x="204" y="28" font-family="Arial, sans-serif" font-size="20" fill="#0f172a">X</text>
    <text x="276" y="28" font-family="Arial, sans-serif" font-size="18" fill="#475569">next</text>
    <path d="M 245 -24 C 245 -50, 410 -50, 410 -24" fill="none" stroke="#dc2626" stroke-width="2.5" marker-end="url(#arrow)"/>
    <path d="M 314 22 C 340 22, 340 22, 340 22" fill="none" stroke="#16a34a" stroke-width="2.5"/>
    <path d="M 314 22 C 330 22, 330 -78, 412 -78" fill="none" stroke="#16a34a" stroke-width="2.5" marker-end="url(#arrow)"/>
    <text x="6" y="12" font-family="Arial, sans-serif" font-size="17" fill="#334155">Step 1: X-&gt;next = B-&gt;next</text>
    <text x="6" y="72" font-family="Arial, sans-serif" font-size="17" fill="#334155">Step 2: B-&gt;next = X</text>
  </g>
</svg>
