<svg xmlns="http://www.w3.org/2000/svg" width="760" height="320" viewBox="0 0 760 320">
  <rect width="760" height="320" fill="#fffdf7"/>
  <g stroke="#334155" stroke-width="2.5" fill="none">
    <line x1="120" y1="160" x2="250" y2="90"/>
    <line x1="120" y1="160" x2="250" y2="230"/>
    <line x1="250" y1="90" x2="390" y2="70"/>
    <line x1="250" y1="90" x2="390" y2="160"/>
    <line x1="250" y1="230" x2="390" y2="160"/>
    <line x1="250" y1="230" x2="390" y2="250"/>
    <line x1="390" y1="160" x2="540" y2="160"/>
  </g>
  <g fill="#dcfce7" stroke="#16a34a" stroke-width="2">
    <circle cx="120" cy="160" r="26"/>
    <circle cx="250" cy="90" r="26"/>
    <circle cx="250" cy="230" r="26"/>
    <circle cx="390" cy="70" r="26"/>
    <circle cx="390" cy="160" r="26"/>
    <circle cx="390" cy="250" r="26"/>
    <circle cx="540" cy="160" r="26"/>
  </g>
  <g font-family="Arial, sans-serif" font-size="20" fill="#0f172a" text-anchor="middle">
    <text x="120" y="167">A</text>
    <text x="250" y="97">B</text>
    <text x="250" y="237">C</text>
    <text x="390" y="77">D</text>
    <text x="390" y="167">E</text>
    <text x="390" y="257">F</text>
    <text x="540" y="167">G</text>
  </g>
  <g font-family="Arial, sans-serif" font-size="18" fill="#0f172a">
    <text x="36" y="42">BFS from A</text>
    <text x="36" y="72">Visit order: A -&gt; B -&gt; C -&gt; D -&gt; E -&gt; F -&gt; G</text>
    <text x="36" y="102">Queue idea: push neighbors level by level</text>
    <text x="36" y="284">Layer 0: A</text>
    <text x="170" y="284">Layer 1: B, C</text>
    <text x="336" y="284">Layer 2: D, E, F</text>
    <text x="520" y="284">Layer 3: G</text>
  </g>
</svg>
