<svg xmlns="http://www.w3.org/2000/svg" width="700" height="180" viewBox="0 0 700 180">
  <defs>
    <marker id="arrow" viewBox="0 0 10 10" refX="8.5" refY="5" markerWidth="7" markerHeight="7" orient="auto-start-reverse">
      <path d="M 0 0 L 10 5 L 0 10 z" fill="#334155"/>
    </marker>
  </defs>
  <rect width="700" height="180" fill="#fffdf7"/>
  <line x1="70" y1="100" x2="640" y2="100" stroke="#334155" stroke-width="2.4" marker-end="url(#arrow)"/>
  <g stroke="#94a3b8" stroke-width="1.5">
    <line x1="120" y1="88" x2="120" y2="112"/>
    <line x1="200" y1="88" x2="200" y2="112"/>
    <line x1="280" y1="88" x2="280" y2="112"/>
    <line x1="360" y1="88" x2="360" y2="112"/>
    <line x1="440" y1="88" x2="440" y2="112"/>
    <line x1="520" y1="88" x2="520" y2="112"/>
    <line x1="600" y1="88" x2="600" y2="112"/>
  </g>
  <g font-family="Arial, sans-serif" font-size="16" fill="#0f172a">
    <text x="114" y="132">-2</text>
    <text x="194" y="132">-1</text>
    <text x="275" y="132">0</text>
    <text x="355" y="132">1</text>
    <text x="435" y="132">2</text>
    <text x="515" y="132">3</text>
    <text x="595" y="132">4</text>
    <text x="650" y="106">x</text>
  </g>
  <line x1="200" y1="100" x2="428" y2="100" stroke="#16a34a" stroke-width="8" stroke-linecap="round"/>
  <line x1="452" y1="100" x2="640" y2="100" stroke="#16a34a" stroke-width="8" stroke-linecap="round" marker-end="url(#arrow)"/>
  <circle cx="200" cy="100" r="7" fill="#16a34a"/>
  <circle cx="440" cy="100" r="8" fill="#fffdf7" stroke="#dc2626" stroke-width="3"/>
  <g font-family="Arial, sans-serif" font-size="17" fill="#334155">
    <text x="170" y="62">include</text>
    <text x="414" y="62">exclude</text>
    <text x="86" y="32">domain on the x-axis:</text>
    <text x="86" y="54">start at -1, remove 2, then extend to +infinity</text>
  </g>
  <text x="470" y="32" font-family="Arial, sans-serif" font-size="18" fill="#0f766e">[-1, +infinity) \ {2}</text>
</svg>
