<svg xmlns="http://www.w3.org/2000/svg" width="700" height="420" viewBox="0 0 700 420">
  <defs>
    <marker id="arrow" viewBox="0 0 10 10" refX="8.5" refY="5" markerWidth="7" markerHeight="7" orient="auto-start-reverse">
      <path d="M 0 0 L 10 5 L 0 10 z" fill="#334155"/>
    </marker>
  </defs>
  <rect width="700" height="420" fill="#fffdf7"/>
  <g stroke="#e5e7eb" stroke-width="1">
    <line x1="110" y1="30" x2="110" y2="390"/>
    <line x1="190" y1="30" x2="190" y2="390"/>
    <line x1="270" y1="30" x2="270" y2="390"/>
    <line x1="350" y1="30" x2="350" y2="390"/>
    <line x1="430" y1="30" x2="430" y2="390"/>
    <line x1="510" y1="30" x2="510" y2="390"/>
    <line x1="590" y1="30" x2="590" y2="390"/>
    <line x1="30" y1="90" x2="650" y2="90"/>
    <line x1="30" y1="150" x2="650" y2="150"/>
    <line x1="30" y1="210" x2="650" y2="210"/>
    <line x1="30" y1="270" x2="650" y2="270"/>
    <line x1="30" y1="330" x2="650" y2="330"/>
  </g>
  <line x1="30" y1="210" x2="665" y2="210" stroke="#334155" stroke-width="2.4" marker-end="url(#arrow)"/>
  <line x1="350" y1="390" x2="350" y2="18" stroke="#334155" stroke-width="2.4" marker-end="url(#arrow)"/>
  <polyline fill="none" stroke="#dc2626" stroke-width="4" points="382,60 390,90 410,130 430,150 470,170 510,180 590,190"/>
  <polyline fill="none" stroke="#dc2626" stroke-width="4" points="110,230 190,240 230,250 270,270 290,290 310,330 318,360"/>
  <circle cx="430" cy="150" r="5" fill="#2563eb"/>
  <circle cx="270" cy="270" r="5" fill="#2563eb"/>
  <g font-family="Arial, sans-serif" font-size="16" fill="#0f172a">
    <text x="672" y="216">x</text>
    <text x="358" y="18">y</text>
    <text x="356" y="232">O</text>
    <text x="422" y="142">(1, 1)</text>
    <text x="205" y="291">(-1, -1)</text>
    <text x="128" y="232">-3</text>
    <text x="208" y="232">-2</text>
    <text x="288" y="232">-1</text>
    <text x="372" y="232">1</text>
    <text x="452" y="232">2</text>
    <text x="532" y="232">3</text>
    <text x="328" y="336">-2</text>
    <text x="328" y="276">-1</text>
    <text x="328" y="156">1</text>
    <text x="328" y="96">2</text>
  </g>
  <g font-family="Arial, sans-serif" font-size="17" fill="#475569">
    <text x="70" y="58">y = 1/x has two branches</text>
    <text x="70" y="80">and is symmetric about the origin</text>
  </g>
</svg>
